<svg width="80" height="28" viewBox="0 0 80 28" fill="none" xmlns="http://www.w3.org/2000/svg">
<path d="M5.55 22H12.45L13.45 18H4.55L5.55 22ZM5.55 24C5.08333 24 4.675 23.8583 4.325 23.575C3.975 23.2917 3.74167 22.925 3.625 22.475L2.5 18H15.5L14.375 22.475C14.2583 22.925 14.025 23.2917 13.675 23.575C13.325 23.8583 12.9167 24 12.45 24H5.55ZM2 16H16V14H2V16ZM9 10C9 8.33333 9.58333 6.91667 10.75 5.75C11.9167 4.58333 13.3333 4 15 4C15 5.5 14.525 6.8 13.575 7.9C12.625 9 11.4333 9.66667 10 9.9V12H18V16C18 16.55 17.8042 17.0208 17.4125 17.4125C17.0208 17.8042 16.55 18 16 18H2C1.45 18 0.979167 17.8042 0.5875 17.4125C0.195833 17.0208 0 16.55 0 16V12H8V9.9C6.56667 9.66667 5.375 9 4.425 7.9C3.475 6.8 3 5.5 3 4C4.66667 4 6.08333 4.58333 7.25 5.75C8.41667 6.91667 9 8.33333 9 10Z" fill="#006D44"/>
<path d="M30.94 6.32H33.12V7.48C33.12 8.65333 32.9267 9.76667 32.54 10.82C32.1667 11.8733 31.5933 12.8 30.82 13.6C30.0467 14.3867 29.0667 14.9733 27.88 15.36L26.56 13.26C27.5733 12.9267 28.4 12.46 29.04 11.86C29.6933 11.2467 30.1733 10.56 30.48 9.8C30.7867 9.02667 30.94 8.25333 30.94 7.48V6.32ZM31.48 6.32H33.62V7.48C33.62 8.2 33.7667 8.9 34.06 9.58C34.3533 10.2467 34.8067 10.8467 35.42 11.38C36.0467 11.9133 36.86 12.3333 37.86 12.64L36.58 14.72C35.4067 14.3733 34.44 13.84 33.68 13.12C32.9333 12.3867 32.38 11.54 32.02 10.58C31.66 9.60667 31.48 8.57333 31.48 7.48V6.32ZM27.24 5.48H37.26V7.6H27.24V5.48ZM38.72 4.26H41.38V15.24H38.72V4.26ZM40.66 8.5H43.84V10.68H40.66V8.5ZM35.34 15.56C36.6333 15.56 37.7467 15.7067 38.68 16C39.6133 16.28 40.3333 16.6867 40.84 17.22C41.3467 17.7533 41.6 18.4 41.6 19.16C41.6 19.92 41.3467 20.5667 40.84 21.1C40.3333 21.6467 39.6133 22.06 38.68 22.34C37.7467 22.6333 36.6333 22.78 35.34 22.78C34.06 22.78 32.9467 22.6333 32 22.34C31.0667 22.06 30.34 21.6467 29.82 21.1C29.3133 20.5667 29.06 19.92 29.06 19.16C29.06 18.4 29.3133 17.7533 29.82 17.22C30.34 16.6867 31.0667 16.28 32 16C32.9467 15.7067 34.06 15.56 35.34 15.56ZM35.34 17.64C34.5533 17.64 33.8933 17.6933 33.36 17.8C32.8267 17.9067 32.42 18.0733 32.14 18.3C31.86 18.5267 31.72 18.8133 31.72 19.16C31.72 19.52 31.86 19.8133 32.14 20.04C32.42 20.2667 32.8267 20.44 33.36 20.56C33.8933 20.6667 34.5533 20.72 35.34 20.72C36.1267 20.72 36.7867 20.6667 37.32 20.56C37.8667 20.44 38.2733 20.2667 38.54 20.04C38.82 19.8133 38.96 19.52 38.96 19.16C38.96 18.8133 38.82 18.5267 38.54 18.3C38.2733 18.0733 37.8667 17.9067 37.32 17.8C36.7867 17.6933 36.1267 17.64 35.34 17.64ZM44.7184 18.46H61.4984V20.62H44.7184V18.46ZM51.7584 14.5H54.3984V18.98H51.7584V14.5ZM46.4784 5.42H49.1384V8.28H57.0184V5.42H59.6584V15.06H46.4784V5.42ZM49.1384 10.36V12.94H57.0184V10.36H49.1384ZM64.3369 5.82H76.0569V7.94H64.3369V5.82ZM62.6169 18.38H79.3769V20.54H62.6169V18.38ZM68.5369 12.02H71.2169V19.46H68.5369V12.02ZM75.0969 5.82H77.7769V7.58C77.7769 8.35333 77.7635 9.17333 77.7369 10.04C77.7235 10.9067 77.6635 11.8667 77.5569 12.92C77.4635 13.9733 77.2902 15.1533 77.0369 16.46L74.3769 16.18C74.7502 14.3267 74.9635 12.7133 75.0169 11.34C75.0702 9.95333 75.0969 8.7 75.0969 7.58V5.82Z" fill="#006D44"/>
</svg>
